# xmcd
#
# Track frame offsets:
#	150
#	12900
#	26153
#	38228
#	52328
#	65153
#	78165
#	90877
#	101977
#	114519
#	127681
#	139978
#	153665
#	167015
#	178715
#	191052
#	204064
#	215454
#	227734
#	240446
#	253183
#	265418
#	279405
#	292080
#	305139
#	318610
#	331097
#	343950
#
# Disc length: 4717 seconds
#
# Revision: 1
# Processed by: cddbd v1.5.2PL0 Copyright (c) Steve Scherf et al.
# Submitted via: audiograbber 1.83.01
#
DISCID=a6126b1c
DTITLE=George Barnes - CD 1 - Blues And Country Jazz (1938-1948)
DYEAR=1900
DGENRE=
TTITLE0=Boar Hog Blues (Jazz Gillum)
TTITLE1=It´s A Low Down Dirty Shame (Big Bill Broonzy)
TTITLE2=Love Shadows Weakness (The Yas Yas Girl Merline Johnson)
TTITLE3=Down At The Old Village Store (Washboard Sam)
TTITLE4=Just Like Jesse James (Jazz Gillum)
TTITLE5=Squezze Me Tight (The Yas Yas Girl Merline Johnson)
TTITLE6=Sweetheart Land (Big Bill Broonzy)
TTITLE7=Gillum´s Windy City Blues (Jazz Gillum)
TTITLE8=Jelly Bean Blues (The Yas Yas Girl Merline Johnson)
TTITLE9=New ´Shake ´Em Down´ (Big Bill Broonzy)
TTITLE10=Booze Drinking Benny (Blind John Davis)
TTITLE11=Reefer Head Woman (Jazz Gillum)
TTITLE12=You Can´t Take It With You (Lorraine Walton)
TTITLE13=Sad Pencil Blues (Big Bill Broonzy)
TTITLE14=You´re A Dog (The Sweet Violet Boys)
TTITLE15=Sweet, Sweet Woman (Jazz Gillum)
TTITLE16=I Love My Fruit (The Sweet Violet Boys)
TTITLE17=The Gal I Love (Washboard Sam)
TTITLE18=Night Time Is The Right Time, No.2 (Big Bill Broonzy)
TTITLE19=You´ve Got To See Mama Ev´ry Night (The Sweet Violet Boys)
TTITLE20=You Can´t Shoot Your Pistol (The Yas Yas Girl Merline Johnson)
TTITLE21=New ´Sail On, Little Girl´ (Jazz Gillum)
TTITLE22=Got The Blues So Bad (Blind John Davis)
TTITLE23=It´s A Low Down Dirty Shame (Curtis Jones)
TTITLE24=What You Gonna Do When The Rent Comes ´Round (Louise Massey and The West
TTITLE24=eners)
TTITLE25=Down Home Shake (Hattie Bolden)
TTITLE26=Lulu From Honolulu (The Sweet Violet Boys)
TTITLE27=Magic Carpet (Blind Johnny Davis Trio)
EXTD=
EXTT0=
EXTT1=
EXTT2=
EXTT3=
EXTT4=
EXTT5=
EXTT6=
EXTT7=
EXTT8=
EXTT9=
EXTT10=
EXTT11=
EXTT12=
EXTT13=
EXTT14=
EXTT15=
EXTT16=
EXTT17=
EXTT18=
EXTT19=
EXTT20=
EXTT21=
EXTT22=
EXTT23=
EXTT24=
EXTT25=
EXTT26=
EXTT27=
PLAYORDER=
